<?xml version="1.0" encoding="UTF-8"?>
<!DOCTYPE svg  PUBLIC '-//W3C//DTD SVG 1.1//EN'  'http://www.w3.org/Graphics/SVG/1.1/DTD/svg11.dtd'>
<svg enable-background="new 0 0 585.2 361.62" version="1.1" viewBox="0 0 585.2 361.62" xml:space="preserve" xmlns="http://www.w3.org/2000/svg">
<g fill="#515455">
	<path d="m50.07 121.75c3.02 0 4.42 3.24 4.42 6.26 0 3.35-1.62 6.37-4.42 6.37h-15.75v61.83c0 2.91-3.56 4.42-7.01 4.42-3.56 0-7.01-1.51-7.01-4.42v-61.83h-15.88c-2.81 0-4.42-2.91-4.42-6.37 0-3.02 1.4-6.26 4.42-6.26h45.65z"/>
	<path d="m62.16 126.07c0-2.27 1.83-4.32 4.53-4.32h21.37c14.14 0 25.57 5.4 25.57 22.55 0 12.41-6.04 19.1-14.14 21.58l14.14 26.22c0.43 0.54 0.54 1.29 0.54 1.73 0 3.56-4.64 7.34-8.74 7.34-1.94 0-3.78-1.19-4.86-3.35l-15.32-29.78h-9.06v28.16c0 2.91-3.45 4.42-7.01 4.42-3.45 0-7.01-1.51-7.01-4.42v-70.13zm14.03 7.99v22.98h11.87c7.01 0 11.55-2.91 11.55-11.44s-4.53-11.55-11.55-11.55h-11.87z"/>
	<path d="m118.16 194.81c0-0.22 0.11-0.65 0.22-1.08l20.83-67.88c0.97-3.24 4.96-4.75 8.96-4.75 4.1 0 8.09 1.51 9.06 4.75l20.83 67.88c0.11 0.43 0.22 0.76 0.22 1.08 0 3.35-5.07 5.83-8.85 5.83-2.37 0-4.21-0.76-4.75-2.81l-4.1-14.35h-24.71l-4.1 14.35c-0.54 2.05-2.37 2.81-4.75 2.81-3.79 0-8.86-2.38-8.86-5.83zm39.39-22.34l-9.39-33.13-9.39 33.13h18.78z"/>
	<path d="m210.97 121.75c14.24 0 25.36 6.69 25.36 24.71v29.46c0 18.02-11.11 24.71-25.36 24.71h-19.1c-3.67 0-6.15-2.05-6.15-4.32v-70.25c0-2.27 2.48-4.32 6.15-4.32h19.1zm-11.23 12.31v54.28h11.22c7.12 0 11.33-3.99 11.33-12.41v-29.46c0-8.42-4.21-12.41-11.33-12.41h-11.22z"/>
	<path d="m285.75 126.07c0-3.02 3.45-4.32 7.01-4.32 3.45 0 7.01 1.29 7.01 4.32v50.5c0 18.02-11.44 24.71-25.9 24.71-14.57 0-25.9-6.69-25.9-24.71v-50.5c0-3.02 3.45-4.32 7.01-4.32 3.45 0 7.01 1.29 7.01 4.32v50.5c0 8.42 4.42 12.41 11.87 12.41s11.87-3.99 11.87-12.41v-50.5z"/>
	<path d="m308.19 125.53c-0.11-0.22-0.11-0.54-0.11-0.76 0-1.83 2.27-3.02 4.1-3.02 1.29 0 2.48 0.54 2.81 1.83l19.96 66.26 19.86-66.26c0.43-1.29 1.51-1.83 2.7-1.83 1.94 0 4.32 1.4 4.32 3.13 0 0.22-0.11 0.43-0.11 0.65l-22.45 73.16c-0.54 1.73-2.37 2.59-4.32 2.59-1.83 0-3.67-0.76-4.21-2.59l-22.55-73.16z"/>
	<path d="m379.31 158.01h16.94c1.73 0 2.7 1.51 2.7 3.24 0 1.4-0.75 2.91-2.7 2.91h-16.94v29.89h34.53c1.73 0 2.7 1.62 2.7 3.35 0 1.51-0.75 3.24-2.7 3.24h-38.42c-1.62 0-3.24-0.97-3.24-2.81v-73.38c0-1.83 1.62-2.7 3.24-2.7h38.42c1.94 0 2.7 1.62 2.7 3.13 0 1.83-0.97 3.45-2.7 3.45h-34.53v29.68z"/>
	<path d="m427 124.34c0-1.4 1.08-2.48 2.7-2.59h19.1c12.63 0 23.31 5.07 23.31 21.26 0 13.38-7.45 19.21-16.83 20.83l16.62 31.94c0.32 0.43 0.43 0.97 0.43 1.4 0 1.83-2.05 3.67-4.1 3.67-1.73 0-2.91-2.05-3.78-3.78l-16.62-32.37h-13.7v33.13c0 1.83-1.83 2.81-3.56 2.81-1.83 0-3.56-0.97-3.56-2.81v-73.49zm7.12 4v30.21h14.68c9.6 0 16.19-4.32 16.19-15.22 0-10.79-6.58-15-16.19-15h-14.68z"/>
	<path d="m517.54 179.81c0-23.96-35.83-12.3-35.83-38.63 0-15.75 12.84-19.64 22.88-19.64 8.09 0 18.13 2.7 18.13 6.58 0 1.4-1.19 3.99-3.13 3.99-2.05 0-5.61-4.1-15.11-4.1-7.98 0-15.65 2.91-15.65 12.52 0 20.07 35.83 8.74 35.83 38.63 0 15.32-9.5 22.23-22.77 22.23-13.81 0-22.12-7.77-22.12-11.65 0-1.73 1.62-3.99 3.24-3.99 2.81 0 4.96 8.96 18.45 8.96 10.04-0.01 16.08-5.08 16.08-14.9z"/>
	<path d="m531.46 197.61c0-0.22 0-0.54 0.11-0.76l22.55-73.27c0.54-1.73 2.37-2.48 4.21-2.48 1.94 0 3.78 0.86 4.32 2.48l22.45 73.27c0 0.22 0.11 0.43 0.11 0.65 0 1.73-2.38 3.13-4.32 3.13-1.19 0-2.27-0.54-2.7-1.83l-4.96-16.62h-29.89l-4.96 16.62c-0.32 1.29-1.51 1.83-2.8 1.83-1.86 0.01-4.12-1.18-4.12-3.02zm39.93-21.58l-13.06-43.49-13.17 43.49h26.23z"/>
</g>
<g fill="#505354">
	<path d="m23.39 220.59c0 0.91-0.79 1.74-1.79 1.74-1.04 0-1.87-0.83-1.87-1.74s0.83-1.7 1.87-1.7c1 0 1.79 0.79 1.79 1.7zm-0.41 8.56v17.57c0 0.54-0.62 1.08-1.37 1.08s-1.33-0.54-1.33-1.08v-17.57c0-0.58 0.58-1 1.33-1s1.37 0.42 1.37 1z"/>
	<path d="m64.06 217.1v29.61c0 0.54-0.54 1.08-1.29 1.08-0.71 0-1.29-0.54-1.29-1.08v-1.83c-0.91 1.7-3.11 3.2-5.69 3.2-3.95 0-7.35-3.78-7.35-7.89v-4.53c0-4.28 3.36-7.77 7.43-7.77 2.74 0 4.61 1.54 5.48 3.16v-13.95c0-0.58 0.62-1 1.41-1 0.76 0.01 1.3 0.42 1.3 1zm-12.92 23.1c0 2.74 2.37 5.4 5.15 5.4 2.91 0 5.07-2.87 5.07-4.11v-5.81c0-3.32-2.53-5.28-5.03-5.28-2.87 0-5.19 2.62-5.19 5.28v4.52z"/>
	<path d="m105.22 235.46c0 3.2-1.79 3.32-3.61 3.32h-9.39v1.54c0 3.32 2.66 5.4 6.31 5.4 3.28 0 4.07-1.66 4.98-1.66 0.67 0 1.16 0.79 1.16 1.29 0 1-2.37 2.74-6.23 2.74-5.23 0-8.93-3.16-8.93-7.89v-4.65c0-4.15 3.57-7.64 7.93-7.64 4.13-0.01 7.78 3.15 7.78 7.55zm-4.69 1.33c1.66 0 2.08-0.25 2.08-1.41 0-2.66-2.12-5.23-5.19-5.23-2.87 0-5.19 2.28-5.19 5.07v1.58h8.3z"/>
	<path d="m143.4 235.92v10.8c0 0.62-0.54 1.08-1.33 1.08-0.71 0-1.25-0.46-1.25-1.08v-1.83c-1.45 1.66-3.49 3.2-6.27 3.2-3.16 0-5.65-1.75-5.65-5.48 0-4.53 3.9-5.69 9.68-5.69h2.12v-1c0-2.66-1.33-5.65-4.9-5.65-2.78 0-3.78 1.2-4.44 1.2-0.71 0-1.08-0.83-1.08-1.45 0-1.08 2.95-2.12 5.61-2.12 5.56 0 7.51 3.86 7.51 8.02zm-2.7 2.86h-1.74c-3.82 0-7.35 0.37-7.35 3.57 0 2.41 1.58 3.45 3.61 3.45 2.66 0 5.48-2.49 5.48-4.36v-2.66z"/>
	<path d="m178.91 242.85c0-5.52-10.26-2.41-10.26-9.3 0-2.66 1.83-5.65 6.56-5.65 2.74 0 5.57 1.04 5.57 2.04 0 0.46-0.46 1.41-1.12 1.41s-1.95-1.16-4.4-1.16c-3.07 0-4.15 1.87-4.15 3.24 0 4.74 10.3 1.75 10.3 9.3 0 3.28-2.45 5.36-6.69 5.36-3.9 0-6.52-1.75-6.52-2.99 0-0.54 0.42-1.25 0.96-1.25 0.91 0 1.74 1.95 5.48 1.95 3.15 0 4.27-1.37 4.27-2.95z"/>
	<path d="m238.81 220.59c0 0.91-0.79 1.74-1.79 1.74-1.04 0-1.87-0.83-1.87-1.74s0.83-1.7 1.87-1.7c1 0 1.79 0.79 1.79 1.7zm-0.41 8.56v17.57c0 0.54-0.62 1.08-1.37 1.08s-1.33-0.54-1.33-1.08v-17.57c0-0.58 0.58-1 1.33-1s1.37 0.42 1.37 1z"/>
	<path d="m267.31 246.72c0 0.54-0.62 1.08-1.37 1.08-0.79 0-1.33-0.54-1.33-1.08v-17.57c0-0.58 0.54-1 1.33-1 0.67 0 1.25 0.42 1.25 1v1.91c0.87-1.62 2.78-3.16 5.57-3.16 3.99 0 7.39 3.49 7.39 7.77v11.05c0 0.71-0.71 1.08-1.37 1.08-0.62 0-1.33-0.37-1.33-1.08v-11.05c0-2.66-2.33-5.28-5.19-5.28-2.45 0-4.94 1.95-4.94 5.28v11.05z"/>
	<path d="m308.81 241.69c0 2.7 1 3.66 3.86 3.66h1.16c0.75 0 1.25 0.58 1.25 1.2 0 0.67-0.5 1.25-1.25 1.25h-1.16c-4.28 0-6.56-1.83-6.56-6.11v-21.89c0-0.58 0.71-1 1.33-1 0.67 0 1.37 0.42 1.37 1v8.35h5.36c0.54 0 0.96 0.54 0.96 1.12s-0.42 1.12-0.96 1.12h-5.36v11.3z"/>
	<path d="m354.12 235.67v4.53c0 4.11-3.7 7.89-7.93 7.89-4.2 0-7.85-3.74-7.85-7.89v-4.53c0-4.15 3.53-7.77 7.85-7.77 4.24 0 7.93 3.49 7.93 7.77zm-2.69 0c0-2.66-2.33-5.28-5.23-5.28s-5.15 2.62-5.15 5.28v4.53c0 2.78 2.28 5.4 5.15 5.4 2.91 0 5.23-2.62 5.23-5.4v-4.53z"/>
	<path d="m426.61 247.46c-0.17 0.5-0.62 0.66-1.08 0.66-0.58 0-0.91-0.21-1.12-0.62l-4.32-13.5-4.28 13.29c-0.17 0.58-0.62 0.83-1.21 0.83-0.54 0-0.91-0.17-1.12-0.83l-6.48-17.39c-0.08-0.17-0.17-0.46-0.17-0.62 0-0.66 0.87-1.2 1.62-1.2 0.42 0 0.83 0.21 0.96 0.62l5.32 14.79 4.28-13.5c0.17-0.54 0.54-0.71 1.08-0.71 0.5 0 0.91 0.17 1.08 0.71l4.11 13.67 5.44-14.95c0.08-0.37 0.5-0.62 0.91-0.62 0.71 0 1.62 0.46 1.62 1.2 0 0.21-0.08 0.5-0.17 0.62l-6.47 17.55z"/>
	<path d="m472.51 235.67v4.53c0 4.11-3.7 7.89-7.93 7.89-4.2 0-7.85-3.74-7.85-7.89v-4.53c0-4.15 3.53-7.77 7.85-7.77 4.23 0 7.93 3.49 7.93 7.77zm-2.7 0c0-2.66-2.33-5.28-5.23-5.28s-5.15 2.62-5.15 5.28v4.53c0 2.78 2.28 5.4 5.15 5.4 2.91 0 5.23-2.62 5.23-5.4v-4.53z"/>
	<path d="m506.12 230.39c-2.74 0-5.48 2.29-5.48 6.06v10.26c0 0.54-0.58 1.08-1.37 1.08-0.75 0-1.33-0.54-1.33-1.08v-17.57c0-0.58 0.58-1 1.33-1 0.71 0 1.29 0.42 1.29 1v2.04c0.91-1.66 2.87-3.28 5.57-3.28h1.45c0.58 0 1.08 0.58 1.08 1.25s-0.5 1.25-1.08 1.25h-1.46z"/>
	<path d="m546.78 217.1v29.61c0 0.54-0.54 1.08-1.29 1.08-0.71 0-1.29-0.54-1.29-1.08v-1.83c-0.91 1.7-3.12 3.2-5.69 3.2-3.95 0-7.35-3.78-7.35-7.89v-4.53c0-4.28 3.36-7.77 7.43-7.77 2.74 0 4.61 1.54 5.48 3.16v-13.95c0-0.58 0.62-1 1.41-1 0.76 0.01 1.3 0.42 1.3 1zm-12.92 23.1c0 2.74 2.37 5.4 5.15 5.4 2.91 0 5.07-2.87 5.07-4.11v-5.81c0-3.32-2.53-5.28-5.03-5.28-2.87 0-5.19 2.62-5.19 5.28v4.52z"/>
	<path d="m582.46 242.85c0-5.52-10.26-2.41-10.26-9.3 0-2.66 1.83-5.65 6.56-5.65 2.74 0 5.57 1.04 5.57 2.04 0 0.46-0.46 1.41-1.12 1.41s-1.95-1.16-4.4-1.16c-3.07 0-4.15 1.87-4.15 3.24 0 4.74 10.3 1.75 10.3 9.3 0 3.28-2.45 5.36-6.69 5.36-3.9 0-6.52-1.75-6.52-2.99 0-0.54 0.42-1.25 0.96-1.25 0.91 0 1.74 1.95 5.48 1.95 3.15 0 4.27-1.37 4.27-2.95z"/>
</g>
<linearGradient id="b" x1="82.738" x2="503.23" y1="51.118" y2="51.118" gradientUnits="userSpaceOnUse">
	<stop stop-color="#DA9500" offset="0"/>
	<stop stop-color="#CA611F" offset="1"/>
</linearGradient>
<path d="m106.74 102.24c33.02-44.19 113.98-74.06 186.25-74.06s117.26 29.87 150.28 74.06h59.97c-36.02-60.27-116.61-102.24-210.25-102.24-93.65 0-174.23 41.97-210.25 102.24h24z" fill="url(#b)"/>
<linearGradient id="a" x1="87.868" x2="498.1" y1="314.52" y2="314.52" gradientUnits="userSpaceOnUse">
	<stop stop-color="#DA9500" offset="0"/>
	<stop stop-color="#C16335" offset="1"/>
</linearGradient>
<path d="m472.77 267.42c-34.38 39.74-111.99 66.03-179.79 66.03s-109.43-26.29-143.82-66.03h-61.3c38.17 55.93 115.69 94.21 205.12 94.21s166.95-38.28 205.12-94.21h-25.33z" fill="url(#a)"/>
</svg>
